# xmcd CD database file
#
# Track frame offsets:
#	150
#	25388
#	41081
#	60964
#	79932
#	102094
#	118566
#	137100
#	154623
#	172340
#	186608
#	209088
#	223442
#	241943
#	260414
#	286671
#	301792
#	312522
#
# Disc length: 4438 seconds
#
# Revision: 2
# Processed by: cddbd v1.5.2PL0 Copyright (c) Steve Scherf et al.
# Submitted via: CDex 1.70beta2
#
DISCID=0f115412
DTITLE=内田奈織 - HARP TO HERT 内田奈織 ～ Love and Favorite Songs DISC 2
DYEAR=2003
DGENRE=Instrumental
TTITLE0=大きな古時計
TTITLE1=いつも何度でも ～ 映画「千と千尋の神隠し」より
TTITLE2=もののけ姫 ～ 映画「もののけ姫」より
TTITLE3=少年時代
TTITLE4=花
TTITLE5=北の国から
TTITLE6=さとうきび畑
TTITLE7=煙が目にしみる
TTITLE8=イエスタディ・ワンス・モア
TTITLE9=ヒア・ゼア・アンド・エブリウェア
TTITLE10=オンリー・タイム
TTITLE11=星に願いを ～ ディズニー映画「ピノキオ」より
TTITLE12=E.T.のテーマ ～ 映画「ET」より
TTITLE13=ひき潮 ～ 映画「ひき潮」より
TTITLE14=エデンの東 ～ 映画「エデンの東」より
TTITLE15=シェルブールの雨傘 ～ 映画「シェルブールの雨傘」より
TTITLE16=踊りあかそう ～ 映画「マイ・フェア・レディ」より
TTITLE17=枯葉 ～ 映画「夜の門」より
EXTD=
EXTT0=
EXTT1=
EXTT2=
EXTT3=
EXTT4=
EXTT5=
EXTT6=
EXTT7=
EXTT8=
EXTT9=
EXTT10=
EXTT11=
EXTT12=
EXTT13=
EXTT14=
EXTT15=
EXTT16=
EXTT17=
PLAYORDER=
